<svg xmlns="http://www.w3.org/2000/svg" viewBox="0 0 440 185" width="100%" height="185">
  <defs>
    <linearGradient id="cardBg_light_4" x1="0%" y1="0%" x2="100%" y2="100%">
      <stop offset="0%" stop-color="#FFFFFF" />
      <stop offset="100%" stop-color="#FBF9F4" />
    </linearGradient>
    <radialGradient id="cardGlow_light_4" cx="85%" cy="20%" r="50%">
      <stop offset="0%" stop-color="#266A8C" stop-opacity="0.10" />
      <stop offset="100%" stop-color="#FFFFFF" stop-opacity="0" />
    </radialGradient>
  </defs>

  <!-- Card Surface -->
  <rect x="1.5" y="1.5" width="437" height="182" rx="14" fill="url(#cardBg_light_4)" stroke="#CCD2DA" stroke-width="1.5" />
  <rect x="1.5" y="1.5" width="437" height="182" rx="14" fill="url(#cardGlow_light_4)" />
  
  <!-- Glowing Top Accent Line -->
  <line x1="22" y1="1.5" x2="140" y2="1.5" stroke="#266A8C" stroke-width="3" stroke-linecap="round" />

  <!-- Top Category & Metric Badge -->
  <g transform="translate(22, 22)">
    <text font-family="'JetBrains Mono', monospace" font-size="9" font-weight="700" fill="#266A8C" letter-spacing="0.8px">LINUX KERNEL &amp; SYSTEM HARDENING</text>
  </g>
  <g transform="translate(418, 22)">
    <rect x="-115" y="-12" width="115" height="19" rx="9" fill="#F3ECE1" stroke="#E2E8F0" stroke-width="1" />
    <circle cx="-105" cy="-2.5" r="3" fill="#266A8C" />
    <text x="-95" y="1" font-family="'JetBrains Mono', monospace" font-size="8.5" font-weight="600" fill="#1C232B">28 Modules</text>
  </g>

  <!-- Title & Domain Icon -->
  <g transform="translate(22, 58)">
    <text x="0" y="0" font-family="'Plus Jakarta Sans', -apple-system, system-ui, sans-serif" font-size="18" font-weight="800" fill="#1C232B" letter-spacing="-0.3px">archforge</text>
    <g transform="translate(372, -18)">
      <g stroke="#266A8C" stroke-width="1.6" fill="none">
          <rect x="2" y="3" width="20" height="17" rx="3" fill="#266A8C" fill-opacity="0.15" />
          <path d="M 6 8 L 10 11.5 L 6 15" stroke-linecap="round" stroke-linejoin="round" />
          <line x1="12" y1="15" x2="17" y2="15" stroke-linecap="round" />
        </g>
    </g>
  </g>

  <!-- Subtitle / Metric Detail -->
  <g transform="translate(22, 76)">
    <text x="0" y="0" font-family="'JetBrains Mono', monospace" font-size="10" font-weight="600" fill="#266A8C">✦ Idempotent Bash</text>
  </g>

  <!-- Description -->
  <g transform="translate(22, 98)">
    <text x="0" y="0" font-family="'Plus Jakarta Sans', system-ui, sans-serif" font-size="12" font-weight="400" fill="#3B4654">Automated post-installation &amp; kernel hardening for Arch Linux.</text>
    <text x="0" y="18" font-family="'Plus Jakarta Sans', system-ui, sans-serif" font-size="12" font-weight="400" fill="#5A6A80">Systemd services, nftables firewall, cgroups, and modular dotfiles.</text>
  </g>

  <!-- Tech Stack Tags -->
  
      <g transform="translate(22, 150)">
        <rect x="0" y="0" width="81.0" height="22" rx="6" fill="#F7F3EB" stroke="#E2E8F0" stroke-width="1" />
        <circle cx="8" cy="11" r="2.5" fill="#266A8C" />
        <text x="16" y="14.5" font-family="'JetBrains Mono', monospace" font-size="9" fill="#3B4654" font-weight="600">Arch Linux</text>
      </g>
      <g transform="translate(111.0, 150)">
        <rect x="0" y="0" width="113.5" height="22" rx="6" fill="#F7F3EB" stroke="#E2E8F0" stroke-width="1" />
        <circle cx="8" cy="11" r="2.5" fill="#266A8C" />
        <text x="16" y="14.5" font-family="'JetBrains Mono', monospace" font-size="9" fill="#3B4654" font-weight="600">systemd daemons</text>
      </g>
      <g transform="translate(232.5, 150)">
        <rect x="0" y="0" width="126.5" height="22" rx="6" fill="#F7F3EB" stroke="#E2E8F0" stroke-width="1" />
        <circle cx="8" cy="11" r="2.5" fill="#266A8C" />
        <text x="16" y="14.5" font-family="'JetBrains Mono', monospace" font-size="9" fill="#3B4654" font-weight="600">nftables firewall</text>
      </g>
      <g transform="translate(367.0, 150)">
        <rect x="0" y="0" width="74.5" height="22" rx="6" fill="#F7F3EB" stroke="#E2E8F0" stroke-width="1" />
        <circle cx="8" cy="11" r="2.5" fill="#266A8C" />
        <text x="16" y="14.5" font-family="'JetBrains Mono', monospace" font-size="9" fill="#3B4654" font-weight="600">Pure Bash</text>
      </g>
</svg>