<svg xmlns="http://www.w3.org/2000/svg" viewBox="0 0 440 185" width="100%" height="100%">
  <defs>
    <linearGradient id="cardBg_light_1" x1="0%" y1="0%" x2="100%" y2="100%">
      <stop offset="0%" stop-color="#FFFFFF" />
      <stop offset="100%" stop-color="#FBF9F4" />
    </linearGradient>
    <radialGradient id="cardGlow_light_1" cx="85%" cy="20%" r="50%">
      <stop offset="0%" stop-color="#2A6647" stop-opacity="0.10" />
      <stop offset="100%" stop-color="#FFFFFF" stop-opacity="0" />
    </radialGradient>
  </defs>

  <!-- Card Surface -->
  <rect x="1.5" y="1.5" width="437" height="182" rx="14" fill="url(#cardBg_light_1)" stroke="#CCD2DA" stroke-width="1.5" />
  <rect x="1.5" y="1.5" width="437" height="182" rx="14" fill="url(#cardGlow_light_1)" />
  
  <!-- Glowing Top Accent Line -->
  <line x1="22" y1="1.5" x2="140" y2="1.5" stroke="#2A6647" stroke-width="3" stroke-linecap="round" />

  <!-- Top Category & Metric Badge -->
  <g transform="translate(22, 22)">
    <text font-family="'JetBrains Mono', monospace" font-size="9" font-weight="700" fill="#2A6647" letter-spacing="0.8px">CONTAINER RUNTIME AUDIT</text>
  </g>
  <g transform="translate(418, 22)">
    <rect x="-115" y="-12" width="115" height="19" rx="9" fill="#F3ECE1" stroke="#E2E8F0" stroke-width="1" />
    <circle cx="-105" cy="-2.5" r="3" fill="#2A6647" />
    <text x="-95" y="1" font-family="'JetBrains Mono', monospace" font-size="8.5" font-weight="600" fill="#1C232B">100% Rules Pass</text>
  </g>

  <!-- Title & Domain Icon -->
  <g transform="translate(22, 58)">
    <text x="0" y="0" font-family="'Plus Jakarta Sans', -apple-system, system-ui, sans-serif" font-size="18" font-weight="800" fill="#1C232B" letter-spacing="-0.3px">DockerWard</text>
    <g transform="translate(372, -18)">
      <g stroke="#2A6647" stroke-width="1.6" fill="none">
          <rect x="0" y="6" width="6" height="5" rx="1" fill="#2A6647" fill-opacity="0.3" />
          <rect x="8" y="6" width="6" height="5" rx="1" fill="#2A6647" fill-opacity="0.3" />
          <rect x="16" y="6" width="6" height="5" rx="1" fill="#2A6647" fill-opacity="0.3" />
          <rect x="8" y="0" width="6" height="5" rx="1" fill="#2A6647" fill-opacity="0.3" />
          <path d="M -4 14 C 2 21, 24 21, 28 14 C 28 12, 26 11, 22 12" />
        </g>
    </g>
  </g>

  <!-- Subtitle / Metric Detail -->
  <g transform="translate(22, 76)">
    <text x="0" y="0" font-family="'JetBrains Mono', monospace" font-size="10" font-weight="600" fill="#2A6647">✦ CIS Docker v1.6.0</text>
  </g>

  <!-- Description -->
  <g transform="translate(22, 98)">
    <text x="0" y="0" font-family="'Plus Jakarta Sans', system-ui, sans-serif" font-size="12" font-weight="400" fill="#3B4654">Runtime security audit engine for Docker Engine API.</text>
    <text x="0" y="18" font-family="'Plus Jakarta Sans', system-ui, sans-serif" font-size="12" font-weight="400" fill="#5A6A80">Audits live containers against CIS Benchmark v1.6.0 with SARIF.</text>
  </g>

  <!-- Tech Stack Tags -->
  
      <g transform="translate(22, 150)">
        <rect x="0" y="0" width="126.5" height="22" rx="6" fill="#F7F3EB" stroke="#E2E8F0" stroke-width="1" />
        <circle cx="8" cy="11" r="2.5" fill="#2A6647" />
        <text x="16" y="14.5" font-family="'JetBrains Mono', monospace" font-size="9" fill="#3B4654" font-weight="600">Docker Engine API</text>
      </g>
      <g transform="translate(156.5, 150)">
        <rect x="0" y="0" width="146.0" height="22" rx="6" fill="#F7F3EB" stroke="#E2E8F0" stroke-width="1" />
        <circle cx="8" cy="11" r="2.5" fill="#2A6647" />
        <text x="16" y="14.5" font-family="'JetBrains Mono', monospace" font-size="9" fill="#3B4654" font-weight="600">CIS Benchmark v1.6.0</text>
      </g>
      <g transform="translate(310.5, 150)">
        <rect x="0" y="0" width="126.5" height="22" rx="6" fill="#F7F3EB" stroke="#E2E8F0" stroke-width="1" />
        <circle cx="8" cy="11" r="2.5" fill="#2A6647" />
        <text x="16" y="14.5" font-family="'JetBrains Mono', monospace" font-size="9" fill="#3B4654" font-weight="600">cgroups &amp; seccomp</text>
      </g>
      <g transform="translate(445.0, 150)">
        <rect x="0" y="0" width="68.0" height="22" rx="6" fill="#F7F3EB" stroke="#E2E8F0" stroke-width="1" />
        <circle cx="8" cy="11" r="2.5" fill="#2A6647" />
        <text x="16" y="14.5" font-family="'JetBrains Mono', monospace" font-size="9" fill="#3B4654" font-weight="600">71 Tests</text>
      </g>
</svg>