<svg xmlns="http://www.w3.org/2000/svg" viewBox="0 0 440 185" width="100%" height="100%">
  <defs>
    <linearGradient id="cardBg_dark_3" x1="0%" y1="0%" x2="100%" y2="100%">
      <stop offset="0%" stop-color="#121A24" />
      <stop offset="100%" stop-color="#162231" />
    </linearGradient>
    <radialGradient id="cardGlow_dark_3" cx="85%" cy="20%" r="50%">
      <stop offset="0%" stop-color="#5EBAA0" stop-opacity="0.14" />
      <stop offset="100%" stop-color="#121A24" stop-opacity="0" />
    </radialGradient>
    <pattern id="cardGrid_3" width="20" height="20" patternUnits="userSpaceOnUse">
      <path d="M 20 0 L 0 0 0 20" fill="none" stroke="rgba(255,255,255,0.02)" stroke-width="1" />
    </pattern>
  </defs>

  <!-- Card Surface -->
  <rect x="1.5" y="1.5" width="437" height="182" rx="14" fill="url(#cardBg_dark_3)" stroke="#1D2A3B" stroke-width="1.5" />
  <rect x="1.5" y="1.5" width="437" height="182" rx="14" fill="url(#cardGrid_3)" />
  <rect x="1.5" y="1.5" width="437" height="182" rx="14" fill="url(#cardGlow_dark_3)" />
  
  <!-- Glowing Top Accent Line -->
  <line x1="22" y1="1.5" x2="140" y2="1.5" stroke="#5EBAA0" stroke-width="3" stroke-linecap="round" />

  <!-- Top Category & Metric Badge -->
  <g transform="translate(22, 22)">
    <text font-family="'JetBrains Mono', monospace" font-size="9" font-weight="700" fill="#5EBAA0" letter-spacing="0.8px">EASM &amp; PERIMETER DEFENSE</text>
  </g>
  <g transform="translate(418, 22)">
    <rect x="-115" y="-12" width="115" height="19" rx="9" fill="#182333" stroke="rgba(255,255,255,0.1)" stroke-width="1" />
    <circle cx="-105" cy="-2.5" r="3" fill="#5EBAA0" />
    <text x="-95" y="1" font-family="'JetBrains Mono', monospace" font-size="8.5" font-weight="600" fill="#F3F6F9">Grade A+ (98/100)</text>
  </g>

  <!-- Title & Domain Icon -->
  <g transform="translate(22, 58)">
    <text x="0" y="0" font-family="'Plus Jakarta Sans', -apple-system, system-ui, sans-serif" font-size="18" font-weight="800" fill="#F3F6F9" letter-spacing="-0.3px">secuscan-api</text>
    <g transform="translate(372, -18)">
      <g stroke="#5EBAA0" stroke-width="1.6" fill="none">
          <circle cx="12" cy="12" r="10" />
          <circle cx="12" cy="12" r="6" stroke-dasharray="2,2" />
          <circle cx="12" cy="12" r="2" fill="#5EBAA0" />
          <line x1="12" y1="12" x2="19" y2="5" stroke-linecap="round" />
        </g>
    </g>
  </g>

  <!-- Subtitle / Metric Detail -->
  <g transform="translate(22, 76)">
    <text x="0" y="0" font-family="'JetBrains Mono', monospace" font-size="10" font-weight="600" fill="#5EBAA0">✦ Anti-SSRF Guard</text>
  </g>

  <!-- Description -->
  <g transform="translate(22, 98)">
    <text x="0" y="0" font-family="'Plus Jakarta Sans', system-ui, sans-serif" font-size="12" font-weight="400" fill="#CBD5E1">Asynchronous microservices API for External Attack Surface.</text>
    <text x="0" y="18" font-family="'Plus Jakarta Sans', system-ui, sans-serif" font-size="12" font-weight="400" fill="#94A3B8">FastAPI + Celery + PostgreSQL 16 with Anti-SSRF &amp; DNS rebinding guard.</text>
  </g>

  <!-- Tech Stack Tags -->
  
      <g transform="translate(22, 150)">
        <rect x="0" y="0" width="100.5" height="22" rx="6" fill="#182333" stroke="rgba(255,255,255,0.08)" stroke-width="1" />
        <circle cx="8" cy="11" r="2.5" fill="#5EBAA0" />
        <text x="16" y="14.5" font-family="'JetBrains Mono', monospace" font-size="9" fill="#CBD5E1" font-weight="500">FastAPI Async</text>
      </g>
      <g transform="translate(130.5, 150)">
        <rect x="0" y="0" width="100.5" height="22" rx="6" fill="#182333" stroke="rgba(255,255,255,0.08)" stroke-width="1" />
        <circle cx="8" cy="11" r="2.5" fill="#5EBAA0" />
        <text x="16" y="14.5" font-family="'JetBrains Mono', monospace" font-size="9" fill="#CBD5E1" font-weight="500">PostgreSQL 16</text>
      </g>
      <g transform="translate(239.0, 150)">
        <rect x="0" y="0" width="94.0" height="22" rx="6" fill="#182333" stroke="rgba(255,255,255,0.08)" stroke-width="1" />
        <circle cx="8" cy="11" r="2.5" fill="#5EBAA0" />
        <text x="16" y="14.5" font-family="'JetBrains Mono', monospace" font-size="9" fill="#CBD5E1" font-weight="500">Celery Queue</text>
      </g>
      <g transform="translate(341.0, 150)">
        <rect x="0" y="0" width="68.0" height="22" rx="6" fill="#182333" stroke="rgba(255,255,255,0.08)" stroke-width="1" />
        <circle cx="8" cy="11" r="2.5" fill="#5EBAA0" />
        <text x="16" y="14.5" font-family="'JetBrains Mono', monospace" font-size="9" fill="#CBD5E1" font-weight="500">86 Tests</text>
      </g>
</svg>